<?xml version="1.0" encoding="utf-8"?>
<!-- Generator: Adobe Illustrator 23.0.2, SVG Export Plug-In . SVG Version: 6.00 Build 0)  -->
<svg version="1.1" id="Layer_1" xmlns="http://www.w3.org/2000/svg" xmlns:xlink="http://www.w3.org/1999/xlink" x="0px" y="0px"
	 viewBox="0 0 185.6 185.6" style="enable-background:new 0 0 185.6 185.6;" xml:space="preserve">
<style type="text/css">
	.st0{fill:#A2D9E7;}
	.st1{fill:#FFFFFF;}
	.st2{fill:#533278;}
	.st3{fill:#101820;}
	.st4{fill:none;}
	.st5{fill:#572F7F;}
</style>
<g>
	<g>
		<g>
			<path class="st0" d="M158.4,27.2C140.9,9.7,117.6,0,92.8,0S44.7,9.7,27.2,27.2C9.7,44.7,0,68,0,92.8s9.7,48.1,27.2,65.6
				c17.5,17.5,40.8,27.2,65.6,27.2s48.1-9.7,65.6-27.2c17.5-17.5,27.2-40.8,27.2-65.6S175.9,44.7,158.4,27.2z"/>
			<circle class="st1" cx="93.1" cy="92.8" r="85"/>
			<g>
				<path class="st2" d="M156.6,29.3C139.6,12.3,117.1,3,93.1,3s-46.5,9.3-63.5,26.3S3.3,68.8,3.3,92.8s9.3,46.5,26.3,63.5
					c17,17,39.5,26.3,63.5,26.3s46.5-9.3,63.5-26.3c17-17,26.3-39.5,26.3-63.5S173.6,46.3,156.6,29.3z M93.1,177.8
					c-46.9,0-85-38-85-85s38-85,85-85s85,38,85,85S140,177.8,93.1,177.8z"/>
				<path class="st2" d="M118.5,14.2c-7.3-2.3-14.9-3.7-22.7-3.9l0,16.7c6.1,0.2,12,1.3,17.6,3.1L118.5,14.2z"/>
				<path class="st2" d="M131.4,39.2l9.8-13.5c-6.3-4.5-13.2-8.2-20.4-10.7l-5.1,15.9C121.3,33,126.6,35.8,131.4,39.2z"/>
				<path class="st2" d="M39.9,54l-13.5-9.9c-4.7,6.5-8.5,13.5-11.1,21l15.9,5.2C33.3,64.4,36.3,59,39.9,54z"/>
				<circle class="st2" cx="93.1" cy="92.8" r="63"/>
				<path class="st2" d="M73,30.1l-5.1-15.9c-7.4,2.4-14.5,5.8-21,10.2L56.7,38C61.7,34.6,67.2,32,73,30.1z"/>
				<path class="st2" d="M54.6,39.4l-9.8-13.5c-3.6,2.6-6.9,5.4-10.1,8.6c-2.5,2.5-4.7,5.1-6.8,7.8L41.4,52
					C45.2,47.2,49.6,43,54.6,39.4z"/>
				<path class="st2" d="M155.3,71.1l15.9-5.2c-2.5-7.3-6-14.1-10.4-20.5l-13.5,9.8C150.6,60.2,153.3,65.5,155.3,71.1z"/>
				<path class="st2" d="M172,68.3l-15.9,5.2c1.9,6.1,2.9,12.6,2.9,19.3c0,36.4-29.5,65.8-65.8,65.8s-65.8-29.5-65.8-65.8
					c0-7,1.1-13.8,3.2-20.2l-15.9-5.2c-2.6,8.1-4,16.6-4,25.3c0,22,8.6,42.8,24.2,58.4c15.6,15.6,36.3,24.2,58.4,24.2
					s42.8-8.6,58.4-24.2s24.2-36.3,24.2-58.4C175.7,84.4,174.4,76.1,172,68.3z"/>
				<path class="st2" d="M145.8,53.3l13.5-9.8c-2.4-3.2-5-6.2-7.9-9.1c-2.6-2.6-5.4-5-8.3-7.2l-9.8,13.5
					C138.1,44.4,142.3,48.6,145.8,53.3z"/>
				<path class="st2" d="M93.1,26.9c0,0,0.1,0,0.1,0l0-16.7c0,0-0.1,0-0.1,0c-7.8,0-15.5,1.1-22.9,3.2l5.1,15.9
					C81,27.8,87,26.9,93.1,26.9z"/>
			</g>
			<path class="st1" d="M93.1,43.5c27.2,0,49.3,22.1,49.3,49.3c0,27.2-22.1,49.3-49.3,49.3S43.8,120,43.8,92.8
				C43.8,65.6,65.9,43.5,93.1,43.5 M93.1,33c-33,0-59.8,26.8-59.8,59.8c0,33,26.8,59.8,59.8,59.8S153,125.8,153,92.8
				C153,59.8,126.1,33,93.1,33L93.1,33z"/>
			<path class="st1" d="M93.2,37.8H69.2H45.3v61.5c0,4,0.5,7.7,1.4,11.1c2,7.8,5.9,13.9,9.9,18.6c5.6,6.3,11.5,9.5,12.8,10.2
				c3.1,1.7,12.4,5.5,18.3,7.9l5.4,2.2v0l0,0l5.4-2.2c6-2.4,15.3-6.2,18.3-7.9c1.3-0.7,7.2-3.8,12.8-10.2c4-4.6,7.9-10.8,9.9-18.6
				c0.8-3.4,1.3-7,1.4-11.1V37.8H93.2z"/>
			<path class="st2" d="M141,32.9H93.2h-2.9h-45h-5v5v61.5c0.3,29.1,23.1,42.1,27,44.3c4,2.2,23.9,10.1,23.9,10.1l1.9,0.8v0l0,0
				l1.9-0.8c0,0,19.9-7.9,23.9-10.1c3.8-2.1,26.6-15.2,27-44.3V37.8v-5H141z M141,99.3L141,99.3c0,4-0.5,7.7-1.4,11.1
				c-2,8-5.9,14.1-9.9,18.6c-5.6,6.3-11.5,9.5-12.8,10.2c-3.1,1.7-12.4,5.5-18.3,7.9c-2.5,1-4.7,1.9-5.4,2.2l0,0
				c-0.1,0-2.3-0.9-5.4-2.2c-6-2.4-15.3-6.2-18.3-7.9c-1.3-0.7-7.2-3.8-12.8-10.2c-4-4.5-7.9-10.6-9.9-18.6
				c-0.9-3.4-1.4-7.1-1.4-11.1v0V37.8h45h2.9H141V99.3z"/>
			<path class="st3" d="M114.3,41.5c-0.7-0.5-1.4-1-2.2-1.4c-5.7-3.4-12.2-5.2-18.8-5.2c-7.8,0-15.1,2.4-21.1,6.5H48.7V99
				c0,0,0,0,0,0c0,16.9,10,27.1,16.5,31.9c11.3,7.4,27.8,13.4,27.9,13.4v0l0,0c0,0,0,0,0,0v0c0.1,0,16.6-6,27.9-13.4
				c6.6-4.9,16.5-15,16.5-31.9c0,0,0,0,0,0V41.5H114.3z"/>
			<path class="st4" d="M133.3,124.1c-1.2,1.7-2.4,3.3-3.7,4.7C130.9,127.4,132.1,125.8,133.3,124.1z"/>
			<path class="st4" d="M93.2,149.2l-5.4-2.2C90.9,148.3,93.1,149.2,93.2,149.2z"/>
			<path class="st4" d="M118,138.6c-0.1,0.1-0.2,0.1-0.3,0.2C117.8,138.8,117.9,138.7,118,138.6z"/>
			<path class="st4" d="M129.1,129.4c-0.6,0.6-1.1,1.2-1.7,1.8C128,130.6,128.5,130,129.1,129.4z"/>
			<path class="st4" d="M123.7,134.6c-0.8,0.7-1.6,1.3-2.4,1.9C122,135.9,122.8,135.3,123.7,134.6z"/>
			<path class="st4" d="M120.4,137c-0.7,0.5-1.3,0.9-1.8,1.2C119.2,137.9,119.8,137.5,120.4,137z"/>
			<path class="st4" d="M127.4,131.2c-1.3,1.3-2.6,2.4-3.7,3.4C124.8,133.6,126.1,132.5,127.4,131.2z"/>
			<path class="st4" d="M121.3,136.4c-0.3,0.2-0.6,0.4-0.8,0.6C120.7,136.8,121,136.6,121.3,136.4z"/>
			<path class="st4" d="M118.7,138.2c-0.2,0.1-0.3,0.2-0.4,0.3C118.4,138.4,118.5,138.3,118.7,138.2z"/>
			<path class="st4" d="M56.6,129c-4-4.6-7.9-10.8-9.9-18.6C48.7,118.4,52.6,124.5,56.6,129z"/>
			<path class="st5" d="M45.3,99.3c0,4,0.5,7.7,1.4,11.1C45.9,107,45.4,103.4,45.3,99.3L45.3,99.3z"/>
			<path class="st5" d="M118.2,138.5c-0.1,0-0.1,0.1-0.2,0.1C118.1,138.6,118.2,138.5,118.2,138.5z"/>
			<g>
				<path class="st1" d="M25,118.9l4.8,2.4l0.4,1.1l-9,3.4l-1-2.3l4.7-1.8l-3.1-1.5l1.2-3.2l-4.7,1.8l-0.8-2.4l9-3.4l0.4,1.2
					L25,118.9z"/>
				<path class="st1" d="M22.3,128.1l10.4-1l0.7,1.1l-5.9,8.6l-1.4-2.1l0.8-1.2l-2-3.4l-1.4,0.1L22.3,128.1z M27.3,129.9l1,1.7
					l1.3-1.9L27.3,129.9z"/>
				<path class="st1" d="M33.2,140.2l2.3,2.9l-2,1.6c0,0-3.4-3.9-5-6.4l8.1-1.2l-2.4-3l2-1.6c1.3,2.3,5.1,6.5,5.1,6.5L33.2,140.2z"
					/>
				<path class="st1" d="M35,146.3l9.7-3.8l0.9,0.9l-3.3,9.9l-1.9-1.7l0.4-1.3l-2.9-2.7l-1.3,0.5L35,146.3z M40.2,146.7l1.4,1.4
					l0.8-2.2L40.2,146.7z"/>
				<path class="st1" d="M49.2,146.5c3.6,2.9,6.2,4.5,6.2,4.5l-1.5,2l-2.1-1.5l-4.2,5.8l-2.1-1.5l4.2-5.8l-2-1.5L49.2,146.5z"/>
				<path class="st1" d="M56.7,151.9l2.2,1.3l-3.4,6.1l3,1.7l-1.2,2.2l-5.3-2.9L56.7,151.9z"/>
				<path class="st1" d="M59.3,164.3l5.9-5.6l3,0.3l0.6,8.9l-2.4-0.8l-0.1-1.4l-3.7-1.5l-1,1L59.3,164.3z M64.3,162.6l1.8,0.7
					L66,161L64.3,162.6z"/>
				<path class="st1" d="M78.1,170.2l-3.4-5.5l-1,4.5l-2.5-0.6l2.1-9.4l1,0.3l3.4,5.4l1-4.4l2.5,0.5l-2.1,9.3L78.1,170.2z"/>
				<path class="st1" d="M88.8,161.8c0,0,4.1,0.3,6.1,0.1l0,2.1l-3.5-0.1l0,1.6l3.1,0l0,2.2l-3.1,0l-0.1,3.9l-2.5-0.1L88.8,161.8z"
					/>
				<path class="st1" d="M99.6,167.4c0.1,0.7,0.7,1.2,1.4,1.1c0.7-0.1,1.2-0.7,1.1-1.4l-0.6-5.7l2.5-0.4l0.6,5.9
					c0.2,2.1-1.3,4-3.4,4.2c-2.1,0.2-4-1.3-4.2-3.4l-0.6-5.8l2.5-0.2L99.6,167.4z"/>
				<path class="st1" d="M105.6,160.8c3.3-0.6,7.4-1.8,7.4-1.8l0.6,2.5l-2.5,0.6l1.7,7l-2.5,0.6l-1.7-7l-2.4,0.6L105.6,160.8z"/>
				<path class="st1" d="M117.9,167.5l-3.5-9l4-1.5c1.4-0.6,3.2,0.2,3.7,1.7c0.2,0.6,0.2,1.3,0,1.8c0.8,0.3,1.5,0.9,1.8,1.7
					c0.6,1.4-0.2,3.1-1.6,3.7L117.9,167.5z M119.4,160.7c0.4-0.2,0.6-0.7,0.5-1.1c-0.2-0.4-0.7-0.6-1.1-0.5l-1.1,0.4l0.6,1.6
					L119.4,160.7z M121.2,164.1c0.4-0.2,0.6-0.7,0.5-1.1c-0.2-0.4-0.7-0.6-1.1-0.5l-1.6,0.6l0.6,1.6L121.2,164.1z"/>
				<path class="st1" d="M126.8,153c2.3-1.3,5.3-0.5,6.6,1.8c1.3,2.3,0.5,5.3-1.8,6.6c-2.3,1.3-5.3,0.5-6.6-1.8
					C123.7,157.3,124.5,154.4,126.8,153z M128,155.2c-1.1,0.6-1.5,2-0.9,3.1c0.6,1.1,2,1.5,3.1,0.9c1.1-0.6,1.5-2,0.9-3.1
					C130.5,155,129.1,154.6,128,155.2z"/>
				<path class="st1" d="M132.2,149.7l2-1.5l4.3,5.6l2.8-2.1l1.5,1.9l-4.8,3.7L132.2,149.7z"/>
				<path class="st1" d="M149,138.4c-0.6,0-1.1,0.3-1.5,0.8c-0.9,1-0.8,2.3,0.2,3.2c1,0.9,2.3,0.8,3.2-0.2c0.4-0.5,0.6-1.1,0.6-1.7
					l2.5-0.2c0.1,1.2-0.3,2.5-1.2,3.5c-1.8,2-4.8,2.2-6.8,0.5c-2-1.8-2.2-4.8-0.5-6.8c0.9-1,2.1-1.6,3.3-1.7L149,138.4z"/>
				<path class="st1" d="M148.8,133.5l1.4-2.1l5.9,4l1.9-2.9l2,1.3l-3.3,5L148.8,133.5z"/>
				<path class="st1" d="M159.2,127.7c0.6,0.3,1.4,0.1,1.7-0.6c0.3-0.6,0.1-1.4-0.6-1.7l-5.2-2.6l1.1-2.3l5.3,2.7
					c1.9,1,2.6,3.3,1.7,5.1c-1,1.9-3.2,2.6-5.1,1.7l-5.3-2.7l1.2-2.2L159.2,127.7z"/>
				<path class="st1" d="M166,122.1l-9.1-3.1l1.5-4c0.5-1.5,2.2-2.3,3.7-1.8c0.6,0.2,1.1,0.6,1.4,1.2c0.7-0.4,1.6-0.6,2.5-0.3
					c1.5,0.5,2.2,2.1,1.7,3.5L166,122.1z M161.8,116.6c0.2-0.4-0.1-0.9-0.5-1.1c-0.4-0.2-0.9,0.1-1.1,0.5l-0.4,1.2l1.6,0.6
					L161.8,116.6z M165.6,117.4c0.2-0.4-0.1-0.9-0.5-1.1c-0.4-0.2-0.9,0.1-1.1,0.5l-0.6,1.6l1.6,0.6L165.6,117.4z"/>
			</g>
			<polygon class="st1" points="65.3,157.9 68.6,158.3 68.5,157.6 66.1,156.6 			"/>
			<rect x="4.6" y="81.7" class="st2" width="33.9" height="23.9"/>
			<g>
				<path class="st0" d="M11.3,88.4h0.1l4.6,5l4.5-5h0.2v9.4h-1.8v-3.5c0-0.6,0.1-1.6,0.1-1.6s-0.6,0.8-1,1.3L16,96h-0.2L14,94
					c-0.4-0.5-1-1.3-1-1.3s0.1,1,0.1,1.6v3.5h-1.8V88.4z"/>
				<path class="st0" d="M22.6,88.4h0.1l4.6,5l4.5-5h0.2v9.4h-1.8v-3.5c0-0.6,0.1-1.6,0.1-1.6s-0.6,0.8-1,1.3L27.3,96h-0.2L25.3,94
					c-0.4-0.5-1-1.3-1-1.3s0.1,1,0.1,1.6v3.5h-1.8V88.4z"/>
			</g>
			<polygon class="st2" points="147.8,81.7 147.8,82.6 147.8,83.5 147.8,103.7 147.8,104.6 147.8,105.6 181.3,105.6 181.3,81.7 			
				"/>
			<g>
				<path class="st0" d="M158.6,92.6l-2.5-4.2h2.2l0.9,1.6c0.3,0.5,0.6,1.3,0.6,1.3s0.3-0.8,0.5-1.3l0.9-1.6h2l-2.5,4.2l3.1,5.1
					h-2.2l-1.5-2.5c-0.3-0.5-0.6-1.3-0.6-1.3s-0.3,0.8-0.6,1.3l-1.4,2.5h-2L158.6,92.6z"/>
				<path class="st0" d="M168.5,92.6l-2.5-4.2h2.2l0.9,1.6c0.3,0.5,0.6,1.3,0.6,1.3s0.3-0.8,0.5-1.3l0.9-1.6h2l-2.5,4.2l3.1,5.1
					h-2.2l-1.5-2.5c-0.3-0.5-0.6-1.3-0.6-1.3s-0.3,0.8-0.6,1.3l-1.4,2.5h-2L168.5,92.6z"/>
			</g>
		</g>
		<g>
			<path class="st4" d="M94.2,135.5c0,0,15.9-2.9,22.9-12.1c-9.5,9.2-22.9,10.2-22.9,10.2V135.5z"/>
			<path class="st4" d="M84.9,132.1c-9.8-1.2-16-6.4-20-11c9.7,13.7,27.6,14.3,27.6,14.3v-11.1C92.5,124.3,92.4,133,84.9,132.1z"/>
			<polygon class="st4" points="91.6,119.7 91.6,119.7 92.8,120.1 92.8,119.8 92.8,98.1 91.6,98.7 			"/>
			<path class="st1" d="M133.6,102.9c0,0-1.5-3.1-4.5-9l-0.6-1.4c0.4,4.6-0.3,8-0.8,9.8c-3.2,12.1-13.2,16.8-14.1,17.2
				c-4.3,2.3-9.5,0.8-12.1-2.4c-0.9,0.6-1.8,1.2-2.8,1.6V98.9l-5.6-0.8l-5.6,0.7v19.9c-1-0.4-1.9-1-2.8-1.6
				c-2.7,3.2-7.8,4.7-12.1,2.4c-0.9-0.5-10.8-5.2-14.1-17.2c-0.5-1.8-1.2-5.2-0.8-9.8l-0.6,1.4c-3,5.8-4.5,9-4.5,9H54h1.4
				c0,0-2.8,23.6,30.1,34c0,0,2.3,0.6,4.4,1.4c1.7,0.7,3.1,2.2,3.2,2.3v0c0,0,0,0,0,0c0,0,0,0,0,0v0c0.1-0.1,1.5-1.6,3.2-2.3
				c2.1-0.8,4.4-1.4,4.4-1.4c32.9-10.4,30.1-34,30.1-34h1.4H133.6z M92.5,135.4c0,0-17.9-0.7-27.6-14.3c4,4.6,10.3,9.8,20,11
				c7.5,0.9,7.5-7.8,7.5-7.8V135.4z M92.8,119.8v0.3l-1.1-0.3v0v-21l1.1-0.6V119.8z M94.2,135.5v-1.9c0,0,13.3-0.9,22.9-10.2
				C110.1,132.6,94.2,135.5,94.2,135.5z"/>
		</g>
		<path class="st1" d="M82.4,55.8v2.8c0,0.8,0.7,1.5,1.5,1.5h3.6v20.5l5.6,2.5l5.6-2.6V60.1h3.1c0.8,0,1.5-0.7,1.5-1.5v-2.8
			c0-0.9-0.7-1.6-1.6-1.6h-1.3l0.7-1.3h0.6v-0.7h-0.6v-3.7h0.6v-0.7h-4.1l0.9-1.6v-2.3V40h0v-0.7h-0.8l-1-1.1
			c-0.1-0.1-0.3-0.2-0.4-0.4c-0.8-0.7-1.9-1.2-3-1.2h-1.3c-1,0-2.1,0.4-2.8,1.1l-0.1,0.1l-1.6,1.5h-0.7V40v3.8v2.3h0l0.7,1.6h-3.2
			v0.7H85v3.7h-0.5v0.7h0.9l0.6,1.3h-2C83.1,54.2,82.4,54.9,82.4,55.8z M98.9,48.5h1.4v3.7h-1.4V48.5z M98.7,55.4h3v3.5h-3V55.4z
			 M97.8,55.4v3.5h-9.5v-3.5H97.8z M89.8,52.2v-3.7h2.8v3.7H89.8z M93.4,52.2v-3.7h2.8v3.7H93.4z M97.1,77.9h-8v-0.6h8V77.9z
			 M97.1,76.3h-8v-5.2h8V76.3z M97.1,69.4h-8v-0.6h8V69.4z M97.1,67.5h-8v-5.2h8V67.5z M97.1,60.9h-8l-0.8-0.7h9.5L97.1,60.9z
			 M98.2,48.5v3.7H97v-3.7H98.2z M87.7,43.7V40h10.1v3.7v2.4h-1.1c-0.4-0.8-1-1.4-1.8-1.8c0.1-0.2,0.1-0.4,0.1-0.7c0,0,0-0.1,0-0.1
			c-0.1-1.1-1-2.1-2.1-2.1c-1.2,0-2.1,0.9-2.1,2.1c0,0,0,0.1,0,0.1c0,0.2,0,0.5,0.1,0.7c-0.8,0.4-1.4,1-1.8,1.8h-1.3V43.7z
			 M87.7,48.5h1.4v3.7h-1.4V48.5z M85.7,52.2v-3.7h1.2v3.7H85.7z M84,55.4h3.3v3.5H84V55.4z"/>
		<path class="st4" d="M72.6,99.6c0,0-0.5,0-0.9-0.4c-0.4-0.4-0.7-1.1-0.7-1.1s0.4,1.1,0.7,1.8c0.4,1,0.8,1.7,0.8,1.7l3.3-1.6
			l-0.7-1.7L72.6,99.6z"/>
		<g>
			<path class="st4" d="M115.3,100c0.3-0.7,0.6-1.8,0.6-1.8s-0.3,0.7-0.7,1c-0.4,0.3-0.8,0.3-0.8,0.3l-2.4-1.1l-0.7,1.6l3.2,1.5
				C114.5,101.6,114.9,100.9,115.3,100z"/>
			<path class="st4" d="M71.6,99.6c0,0-0.5,0-0.8-0.3c-0.4-0.3-0.7-1-0.7-1s0.4,1.1,0.6,1.8c0.4,1,0.8,1.7,0.8,1.7l3.2-1.5l-0.7-1.6
				L71.6,99.6z"/>
			<path class="st1" d="M121.4,76.2c0,0,0.2,0.6,0.5,1l-4.2,2.1c0.6,1.3,1.1,2.1,1.4,2.5c0.2-0.1,0.4-0.4,0.4-0.6c0-0.1,0-0.1,0-0.1
				c0-0.6,4-1.5,4.2-1.7c-0.7-0.9-2.3-4.1-2.9-6.6c0,0-3.6,2-4,1.6c0,0,0,0-0.1-0.1c-0.2-0.2-0.6-0.1-0.7-0.1c0,0.5,0.6,2.8,1.3,4
				L121.4,76.2z"/>
			<path class="st1" d="M66.1,105.2c1.9,1.3,5,0,5,0c-0.6-0.8-1.2-1.9-2.1-3.8c-1.1-2.3-1.5-4.2-1.7-5.1c0,0-0.7,0.4-1.3,0.8
				c-0.8,0.5-1.8,1.2-2,1.6c0.4-1.5,2-2.5,3.1-3L67,94.8c0,0-2.9,0.7-3.8,3.2c-0.5,1.3-0.6,2.6-0.3,3.9l-0.5,0.2
				c-0.5,0.2-0.7,0.8-0.5,1.3l0.7,1.4c0.2,0.5,0.8,0.7,1.3,0.5l0.5-0.2c0.3,0.4,0.6,0.7,1,1.1c2.6,2.6,6.8,0.5,6.8,0.5
				c0,0-0.5-0.7-0.5-0.7C68,107,67.1,106.3,66.1,105.2z"/>
			<path class="st1" d="M75.5,97.9c-1-2.4-1.6-5.3-1.6-5.3l0,0c-0.6,0.3-0.7,1.1-0.7,1.1l-2.1,1l-3.1,1.4c0.1,1,0.5,2.3,1.5,4.6
				c0.8,1.9,1.9,3.5,2.2,3.9l4.8-2.3c0,0,0.6,0.3,1.4,0.2l0,0C78,102.6,76.7,100.7,75.5,97.9z M71.6,101.6c0,0-0.4-0.7-0.8-1.7
				c-0.3-0.7-0.6-1.8-0.6-1.8s0.3,0.7,0.7,1c0.4,0.3,0.8,0.3,0.8,0.3l2.4-1.1l0.7,1.6L71.6,101.6z"/>
			<path class="st1" d="M79.5,97.6c0,0-2.7,1-1.1,3.9l12.9-6.2l-3.5-1.7L79.5,97.6z"/>
			<path class="st1" d="M107.9,87.3l1.4-0.7c-0.4-0.6-1.1-1.7-1.5-2.7l-6.4,3.1l3.6,1.7L107.9,87.3z"/>
			<path class="st1" d="M74.9,93c0.6,3.3,1.8,5.6,1.8,5.6s0.1-1.3,1-1.8l8.2-3.9l-5.1-2.6L74.9,93z"/>
			<path class="st1" d="M107.2,82.7c0,0-0.9-1.9-1.3-4l-1.8,0.8l-9.4,4.3l5.1,2.4L107.2,82.7z"/>
			<path class="st1" d="M121.6,72.5c0,0,0.8,3.1,2.7,6.4C124.1,76.3,122.9,73.6,121.6,72.5z"/>
			<path class="st1" d="M115.6,78.9c0.1,0.3,0.4,0.9,0.4,0.9s-3.1,1.5-5.4,2.6c-1.2,0.6-1.6,2.1-0.8,3.2l0,0
				c0.5-0.3,8.2-4.1,8.2-4.1s-1.8-2.9-2.6-6.3c-0.6,0.2-8.5,3.7-8.5,3.7s0.4,1.6,1.2,3.4L115.6,78.9z"/>
			<path class="st1" d="M66.6,81.1c0,0,0,0,0,0.1c0,0.2,0.2,0.5,0.4,0.6c0.3-0.5,0.8-1.2,1.4-2.5l-4.2-2.1c0.3-0.4,0.5-1,0.5-1
				l4.2,2c0.6-1.2,1.2-3.5,1.3-4c-0.2-0.1-0.6-0.1-0.7,0.1c0,0-0.1,0.1-0.1,0.1c-0.4,0.5-4-1.6-4-1.6c-0.6,2.5-2.3,5.8-2.9,6.6
				C62.6,79.6,66.6,80.5,66.6,81.1z"/>
			<path class="st1" d="M123.7,102.1l-0.5-0.2c0.3-1.3,0.1-2.6-0.3-3.9c-0.9-2.4-3.8-3.2-3.8-3.2l-0.1,0.9c1.2,0.6,2.7,1.5,3.1,3
				c-0.2-0.5-1.1-1.1-2-1.6c-0.6-0.4-1.3-0.8-1.3-0.8c-0.2,0.9-0.6,2.8-1.7,5.1c-0.9,1.9-1.5,3-2.1,3.8c0,0,3.1,1.3,5,0
				c-1,1.1-1.9,1.9-5.6,0.8c0,0-0.5,0.7-0.5,0.7c0,0,4.3,2.1,6.8-0.5c0.4-0.4,0.7-0.7,1-1.1l0.5,0.2c0.5,0.2,1,0,1.3-0.5l0.7-1.4
				C124.4,102.9,124.2,102.3,123.7,102.1z"/>
			<path class="st1" d="M116.5,100.8c1-2.3,1.4-3.6,1.5-4.6l-3.1-1.4l-2.1-1c0,0,0-0.8-0.7-1.1l0,0c0,0-0.5,2.9-1.6,5.3
				c-1.2,2.7-2.5,4.7-2.5,4.7l0,0c0.8,0.1,1.4-0.2,1.4-0.2l4.8,2.3C114.6,104.3,115.7,102.6,116.5,100.8z M112,98.5l2.4,1.1
				c0,0,0.5,0,0.8-0.3c0.4-0.3,0.7-1,0.7-1s-0.4,1.1-0.6,1.8c-0.4,1-0.8,1.7-0.8,1.7l-3.2-1.5L112,98.5z"/>
			<path class="st1" d="M106.6,97.6l-10-4.9L93,91l-1.6-0.8l-5.2-2.5l-7.9-3.8c-0.4,1-1.1,2.1-1.5,2.7l1.4,0.7l4.4,2.2l5.2,2.5
				l1.6,0.8l3.5,1.7l14.6,7.1C109.3,98.6,106.6,97.6,106.6,97.6z"/>
			<path class="st1" d="M103.4,89.4l-3.6-1.7L98.2,87L93,84.7l-11-5.1l-1.8-0.8c-0.5,2-1.3,4-1.3,4l9,4.3l5.2,2.5l1.6,0.8l3.6,1.7
				l10.1,4.8c1,0.6,1,1.8,1,1.8s1.3-2.3,1.8-5.6L103.4,89.4z"/>
			<path class="st1" d="M61.8,78.8c2-3.3,2.7-6.4,2.7-6.4C63.2,73.6,62,76.3,61.8,78.8z"/>
			<path class="st1" d="M76.3,85.7C76.3,85.7,76.3,85.7,76.3,85.7c0.8-1.1,0.4-2.7-0.8-3.2c-2.3-1.1-5.4-2.6-5.4-2.6
				s0.3-0.6,0.4-0.9l7.6,3.4c0.7-1.8,1.2-3.4,1.2-3.4s-7.9-3.5-8.5-3.7c-0.9,3.4-2.6,6.3-2.6,6.3S75.7,85.4,76.3,85.7z"/>
		</g>
	</g>
	<circle class="st3" cx="93.2" cy="109.1" r="12.4"/>
	<path class="st1" d="M93.2,98.7c-5.7,0-10.3,4.6-10.3,10.3s4.6,10.3,10.3,10.3c5.7,0,10.3-4.6,10.3-10.3S98.9,98.7,93.2,98.7z
		 M102.1,107.2c0,0.3,0,0.7-0.6,0.9c0,0-1.5,0.4-2-1c-1.1-3.2-2.2-5.2-5.8-7.1C97.9,100.2,101.3,103.2,102.1,107.2z M90,100.5
		c1.5-0.4,2.9,0.3,3.4,0.6c2.4,1.3,3.3,2.9,4,4.7c0.3,0.9,0.7,2.5-0.8,2.9c0,0-0.8,0.2-1.6,0c-1.2-0.3-1.7-1.4-1.9-1.6
		c-1.2-2.2-2.4-3.7-4.9-5.6l0,0C88.8,101,89.3,100.7,90,100.5z M84.9,113c-0.6-1.2-0.9-2.5-0.9-3.9c0-1.6,0.3-3.1,1.1-4.3
		c0.3-0.6,0.7-1,1-1.4c1.2-1.3,2.3-0.3,2.3-0.3c1.4,1.3,0.5,1.9,0.1,2.4c-0.2,0.3-0.5,0.6-0.9,1C87.5,106.5,84.8,109.8,84.9,113z
		 M87.6,116.3c-0.5-0.4-0.9-1-1.1-1.7c-0.4-1.4-0.1-2.5,0.1-3.2c0.4-1.7,0.8-2.6,2.1-4.4c0.4-0.6,0.9-1,1.5-1.1
		c0.9-0.1,1.6,1.4,1.6,1.6c0.4,1.5-0.4,2.1-0.8,2.9c-0.5,0.9-1.1,2.4-1.7,4.3c-0.3,1-0.5,2.2-1.2,1.7
		C87.8,116.6,87.7,116.5,87.6,116.3z M93.2,118.3c-0.6,0-1.1-0.1-1.6-0.1c-1-0.2-1.6-0.6-1.4-1.7c0-0.3,0.2-0.8,0.3-1.1
		c0.5-0.8,1.1-0.7,2.4-0.3c2.1,0.7,4.8,0.6,7.7-0.6C98.9,116.8,96.2,118.3,93.2,118.3z M99.4,113.5c-3.3,1.2-6,0.4-6.7,0.2
		c-1-0.4-1.3-1-1.1-1.5c0.2-0.6,0.6-1.1,0.6-1.1c0.6-0.9,1.1-1.2,1.8-1.1l0,0c3.3,0.4,5.3,0.1,8.3-1c0,0.1,0,0.6,0,0.9
		C102,111.2,101.1,112.9,99.4,113.5z"/>
</g>
</svg>
